<mxfile host="app.diagrams.net" modified="2023-09-22T08:29:03.011Z" agent="Mozilla/5.0 (Windows NT 10.0; Win64; x64) AppleWebKit/537.36 (KHTML, like Gecko) Chrome/117.0.0.0 Safari/537.36" etag="lZz0EYgEZO6Z98wicpBI" version="21.8.0" type="device">
  <diagram name="Pagina-1" id="Wr_NogjtHnAgpA5TuuZ0">
    <mxGraphModel dx="819" dy="502" grid="1" gridSize="10" guides="1" tooltips="1" connect="1" arrows="1" fold="1" page="1" pageScale="1" pageWidth="827" pageHeight="1169" math="0" shadow="0">
      <root>
        <mxCell id="0" />
        <mxCell id="1" parent="0" />
        <mxCell id="OcFLlQT7dA1GOdhq0ZGQ-130" value="" style="rounded=0;whiteSpace=wrap;html=1;strokeColor=#FFFFFF;" vertex="1" parent="1">
          <mxGeometry x="40" y="80" width="660" height="340" as="geometry" />
        </mxCell>
        <mxCell id="OcFLlQT7dA1GOdhq0ZGQ-35" style="rounded=0;orthogonalLoop=1;jettySize=auto;html=1;entryX=0.5;entryY=0;entryDx=0;entryDy=0;exitX=0.5;exitY=1;exitDx=0;exitDy=0;" edge="1" parent="1" source="OcFLlQT7dA1GOdhq0ZGQ-1" target="OcFLlQT7dA1GOdhq0ZGQ-9">
          <mxGeometry relative="1" as="geometry" />
        </mxCell>
        <mxCell id="OcFLlQT7dA1GOdhq0ZGQ-36" style="rounded=0;orthogonalLoop=1;jettySize=auto;html=1;entryX=0.5;entryY=0;entryDx=0;entryDy=0;" edge="1" parent="1" target="OcFLlQT7dA1GOdhq0ZGQ-10">
          <mxGeometry relative="1" as="geometry">
            <mxPoint x="160" y="200" as="sourcePoint" />
          </mxGeometry>
        </mxCell>
        <mxCell id="OcFLlQT7dA1GOdhq0ZGQ-37" style="rounded=0;orthogonalLoop=1;jettySize=auto;html=1;entryX=0.5;entryY=0;entryDx=0;entryDy=0;exitX=0.5;exitY=1;exitDx=0;exitDy=0;" edge="1" parent="1" source="OcFLlQT7dA1GOdhq0ZGQ-1" target="OcFLlQT7dA1GOdhq0ZGQ-16">
          <mxGeometry relative="1" as="geometry" />
        </mxCell>
        <mxCell id="OcFLlQT7dA1GOdhq0ZGQ-1" value="&lt;font style=&quot;font-size: 14px;&quot; face=&quot;Tahoma&quot;&gt;&lt;i style=&quot;&quot;&gt;v&lt;/i&gt;&lt;sub style=&quot;&quot;&gt;General&lt;/sub&gt;&lt;/font&gt;" style="ellipse;whiteSpace=wrap;html=1;" vertex="1" parent="1">
          <mxGeometry x="120" y="160" width="80" height="40" as="geometry" />
        </mxCell>
        <mxCell id="OcFLlQT7dA1GOdhq0ZGQ-38" style="rounded=0;orthogonalLoop=1;jettySize=auto;html=1;entryX=0.5;entryY=0;entryDx=0;entryDy=0;exitX=0.5;exitY=1;exitDx=0;exitDy=0;" edge="1" parent="1" source="OcFLlQT7dA1GOdhq0ZGQ-4" target="OcFLlQT7dA1GOdhq0ZGQ-18">
          <mxGeometry relative="1" as="geometry" />
        </mxCell>
        <mxCell id="OcFLlQT7dA1GOdhq0ZGQ-39" style="rounded=0;orthogonalLoop=1;jettySize=auto;html=1;entryX=0.5;entryY=0;entryDx=0;entryDy=0;exitX=0.5;exitY=1;exitDx=0;exitDy=0;" edge="1" parent="1" source="OcFLlQT7dA1GOdhq0ZGQ-4" target="OcFLlQT7dA1GOdhq0ZGQ-17">
          <mxGeometry relative="1" as="geometry" />
        </mxCell>
        <mxCell id="OcFLlQT7dA1GOdhq0ZGQ-40" style="rounded=0;orthogonalLoop=1;jettySize=auto;html=1;entryX=0.5;entryY=0;entryDx=0;entryDy=0;exitX=0.5;exitY=1;exitDx=0;exitDy=0;" edge="1" parent="1" source="OcFLlQT7dA1GOdhq0ZGQ-4" target="OcFLlQT7dA1GOdhq0ZGQ-19">
          <mxGeometry relative="1" as="geometry" />
        </mxCell>
        <mxCell id="OcFLlQT7dA1GOdhq0ZGQ-41" style="rounded=0;orthogonalLoop=1;jettySize=auto;html=1;entryX=0.5;entryY=0;entryDx=0;entryDy=0;exitX=0.5;exitY=1;exitDx=0;exitDy=0;" edge="1" parent="1" source="OcFLlQT7dA1GOdhq0ZGQ-4" target="OcFLlQT7dA1GOdhq0ZGQ-20">
          <mxGeometry relative="1" as="geometry" />
        </mxCell>
        <mxCell id="OcFLlQT7dA1GOdhq0ZGQ-4" value="&lt;font style=&quot;font-size: 14px;&quot; face=&quot;Tahoma&quot;&gt;&lt;sub style=&quot;&quot;&gt;&lt;i style=&quot;&quot;&gt;a&lt;/i&gt;General&lt;/sub&gt;&lt;/font&gt;" style="ellipse;whiteSpace=wrap;html=1;" vertex="1" parent="1">
          <mxGeometry x="340" y="160" width="80" height="40" as="geometry" />
        </mxCell>
        <mxCell id="OcFLlQT7dA1GOdhq0ZGQ-42" style="rounded=0;orthogonalLoop=1;jettySize=auto;html=1;entryX=0.5;entryY=0;entryDx=0;entryDy=0;exitX=0.5;exitY=1;exitDx=0;exitDy=0;" edge="1" parent="1" source="OcFLlQT7dA1GOdhq0ZGQ-6" target="OcFLlQT7dA1GOdhq0ZGQ-29">
          <mxGeometry relative="1" as="geometry" />
        </mxCell>
        <mxCell id="OcFLlQT7dA1GOdhq0ZGQ-43" style="rounded=0;orthogonalLoop=1;jettySize=auto;html=1;entryX=0.5;entryY=0;entryDx=0;entryDy=0;exitX=0.5;exitY=1;exitDx=0;exitDy=0;" edge="1" parent="1" source="OcFLlQT7dA1GOdhq0ZGQ-6" target="OcFLlQT7dA1GOdhq0ZGQ-30">
          <mxGeometry relative="1" as="geometry" />
        </mxCell>
        <mxCell id="OcFLlQT7dA1GOdhq0ZGQ-44" style="rounded=0;orthogonalLoop=1;jettySize=auto;html=1;entryX=0.5;entryY=0;entryDx=0;entryDy=0;exitX=0.5;exitY=1;exitDx=0;exitDy=0;" edge="1" parent="1" source="OcFLlQT7dA1GOdhq0ZGQ-6" target="OcFLlQT7dA1GOdhq0ZGQ-31">
          <mxGeometry relative="1" as="geometry" />
        </mxCell>
        <mxCell id="OcFLlQT7dA1GOdhq0ZGQ-45" style="rounded=0;orthogonalLoop=1;jettySize=auto;html=1;entryX=0.5;entryY=0;entryDx=0;entryDy=0;exitX=0.5;exitY=1;exitDx=0;exitDy=0;" edge="1" parent="1" source="OcFLlQT7dA1GOdhq0ZGQ-6" target="OcFLlQT7dA1GOdhq0ZGQ-32">
          <mxGeometry relative="1" as="geometry" />
        </mxCell>
        <mxCell id="OcFLlQT7dA1GOdhq0ZGQ-6" value="&lt;font style=&quot;font-size: 14px;&quot; face=&quot;Tahoma&quot;&gt;&lt;i&gt;t0&lt;/i&gt;&lt;sub style=&quot;&quot;&gt;General&lt;/sub&gt;&lt;/font&gt;" style="ellipse;whiteSpace=wrap;html=1;" vertex="1" parent="1">
          <mxGeometry x="550" y="160" width="80" height="40" as="geometry" />
        </mxCell>
        <mxCell id="OcFLlQT7dA1GOdhq0ZGQ-7" value="&lt;font style=&quot;font-size: 14px;&quot; face=&quot;Tahoma&quot;&gt;PS&lt;i&gt;&lt;sub&gt;v&lt;/sub&gt;&lt;/i&gt;&lt;/font&gt;" style="rounded=0;whiteSpace=wrap;html=1;" vertex="1" parent="1">
          <mxGeometry x="62.5" y="320" width="45" height="30" as="geometry" />
        </mxCell>
        <mxCell id="OcFLlQT7dA1GOdhq0ZGQ-9" value="&lt;font style=&quot;font-size: 14px;&quot; face=&quot;Tahoma&quot;&gt;AS&lt;i&gt;&lt;sub&gt;v&lt;/sub&gt;&lt;/i&gt;&lt;/font&gt;" style="rounded=0;whiteSpace=wrap;html=1;" vertex="1" parent="1">
          <mxGeometry x="112.5" y="320" width="45" height="30" as="geometry" />
        </mxCell>
        <mxCell id="OcFLlQT7dA1GOdhq0ZGQ-10" value="&lt;font style=&quot;font-size: 14px;&quot; face=&quot;Tahoma&quot;&gt;MR&lt;i&gt;&lt;sub&gt;v&lt;/sub&gt;&lt;/i&gt;&lt;/font&gt;" style="rounded=0;whiteSpace=wrap;html=1;" vertex="1" parent="1">
          <mxGeometry x="162.5" y="320" width="45" height="30" as="geometry" />
        </mxCell>
        <mxCell id="OcFLlQT7dA1GOdhq0ZGQ-16" value="&lt;font style=&quot;font-size: 14px;&quot; face=&quot;Tahoma&quot;&gt;Fl&lt;i&gt;&lt;sub&gt;v&lt;/sub&gt;&lt;/i&gt;&lt;/font&gt;" style="rounded=0;whiteSpace=wrap;html=1;" vertex="1" parent="1">
          <mxGeometry x="212.5" y="320" width="45" height="30" as="geometry" />
        </mxCell>
        <mxCell id="OcFLlQT7dA1GOdhq0ZGQ-17" value="&lt;font style=&quot;font-size: 14px;&quot; face=&quot;Tahoma&quot;&gt;PS&lt;i&gt;&lt;sub&gt;a&lt;/sub&gt;&lt;/i&gt;&lt;/font&gt;" style="rounded=0;whiteSpace=wrap;html=1;" vertex="1" parent="1">
          <mxGeometry x="280" y="320" width="45" height="30" as="geometry" />
        </mxCell>
        <mxCell id="OcFLlQT7dA1GOdhq0ZGQ-18" value="&lt;font style=&quot;font-size: 14px;&quot; face=&quot;Tahoma&quot;&gt;AS&lt;i&gt;&lt;sub&gt;a&lt;/sub&gt;&lt;/i&gt;&lt;/font&gt;" style="rounded=0;whiteSpace=wrap;html=1;" vertex="1" parent="1">
          <mxGeometry x="330" y="320" width="45" height="30" as="geometry" />
        </mxCell>
        <mxCell id="OcFLlQT7dA1GOdhq0ZGQ-19" value="&lt;font style=&quot;font-size: 14px;&quot; face=&quot;Tahoma&quot;&gt;MR&lt;i&gt;&lt;sub&gt;a&lt;/sub&gt;&lt;/i&gt;&lt;/font&gt;" style="rounded=0;whiteSpace=wrap;html=1;" vertex="1" parent="1">
          <mxGeometry x="380" y="320" width="45" height="30" as="geometry" />
        </mxCell>
        <mxCell id="OcFLlQT7dA1GOdhq0ZGQ-20" value="&lt;font style=&quot;font-size: 14px;&quot; face=&quot;Tahoma&quot;&gt;Fl&lt;i&gt;&lt;sub&gt;a&lt;/sub&gt;&lt;/i&gt;&lt;/font&gt;" style="rounded=0;whiteSpace=wrap;html=1;" vertex="1" parent="1">
          <mxGeometry x="430" y="320" width="45" height="30" as="geometry" />
        </mxCell>
        <mxCell id="OcFLlQT7dA1GOdhq0ZGQ-29" value="&lt;font style=&quot;font-size: 14px;&quot; face=&quot;Tahoma&quot;&gt;PS&lt;i&gt;&lt;sub&gt;t0&lt;/sub&gt;&lt;/i&gt;&lt;/font&gt;" style="rounded=0;whiteSpace=wrap;html=1;" vertex="1" parent="1">
          <mxGeometry x="497.5" y="320" width="45" height="30" as="geometry" />
        </mxCell>
        <mxCell id="OcFLlQT7dA1GOdhq0ZGQ-30" value="&lt;font style=&quot;font-size: 14px;&quot; face=&quot;Tahoma&quot;&gt;AS&lt;i&gt;&lt;sub&gt;t0&lt;/sub&gt;&lt;/i&gt;&lt;/font&gt;" style="rounded=0;whiteSpace=wrap;html=1;" vertex="1" parent="1">
          <mxGeometry x="547.5" y="320" width="45" height="30" as="geometry" />
        </mxCell>
        <mxCell id="OcFLlQT7dA1GOdhq0ZGQ-31" value="&lt;font style=&quot;font-size: 14px;&quot; face=&quot;Tahoma&quot;&gt;MR&lt;i&gt;&lt;sub&gt;t0&lt;/sub&gt;&lt;/i&gt;&lt;/font&gt;" style="rounded=0;whiteSpace=wrap;html=1;" vertex="1" parent="1">
          <mxGeometry x="597.5" y="320" width="45" height="30" as="geometry" />
        </mxCell>
        <mxCell id="OcFLlQT7dA1GOdhq0ZGQ-32" value="&lt;font style=&quot;font-size: 14px;&quot; face=&quot;Tahoma&quot;&gt;Fl&lt;i&gt;&lt;sub&gt;t0&lt;/sub&gt;&lt;/i&gt;&lt;/font&gt;" style="rounded=0;whiteSpace=wrap;html=1;" vertex="1" parent="1">
          <mxGeometry x="647.5" y="320" width="45" height="30" as="geometry" />
        </mxCell>
        <mxCell id="OcFLlQT7dA1GOdhq0ZGQ-33" value="" style="endArrow=classic;html=1;rounded=0;exitX=0.5;exitY=1;exitDx=0;exitDy=0;entryX=0.5;entryY=0;entryDx=0;entryDy=0;" edge="1" parent="1" source="OcFLlQT7dA1GOdhq0ZGQ-1" target="OcFLlQT7dA1GOdhq0ZGQ-7">
          <mxGeometry width="50" height="50" relative="1" as="geometry">
            <mxPoint x="390" y="310" as="sourcePoint" />
            <mxPoint x="440" y="260" as="targetPoint" />
          </mxGeometry>
        </mxCell>
        <mxCell id="OcFLlQT7dA1GOdhq0ZGQ-48" value="&lt;font style=&quot;font-size: 14px;&quot;&gt;.52&lt;/font&gt;" style="text;html=1;strokeColor=none;fillColor=none;align=center;verticalAlign=middle;whiteSpace=wrap;rounded=0;" vertex="1" parent="1">
          <mxGeometry x="62.5" y="290" width="30" height="20" as="geometry" />
        </mxCell>
        <mxCell id="OcFLlQT7dA1GOdhq0ZGQ-49" value="&lt;font style=&quot;font-size: 14px;&quot;&gt;.63&lt;/font&gt;" style="text;html=1;strokeColor=none;fillColor=none;align=center;verticalAlign=middle;whiteSpace=wrap;rounded=0;" vertex="1" parent="1">
          <mxGeometry x="107.5" y="290" width="30" height="20" as="geometry" />
        </mxCell>
        <mxCell id="OcFLlQT7dA1GOdhq0ZGQ-50" value="&lt;font style=&quot;font-size: 14px;&quot;&gt;.27&lt;/font&gt;" style="text;html=1;strokeColor=none;fillColor=none;align=center;verticalAlign=middle;whiteSpace=wrap;rounded=0;" vertex="1" parent="1">
          <mxGeometry x="150" y="290" width="30" height="20" as="geometry" />
        </mxCell>
        <mxCell id="OcFLlQT7dA1GOdhq0ZGQ-51" value="&lt;font style=&quot;font-size: 14px;&quot;&gt;.65&lt;/font&gt;" style="text;html=1;strokeColor=none;fillColor=none;align=center;verticalAlign=middle;whiteSpace=wrap;rounded=0;" vertex="1" parent="1">
          <mxGeometry x="190" y="290" width="30" height="20" as="geometry" />
        </mxCell>
        <mxCell id="OcFLlQT7dA1GOdhq0ZGQ-52" value="&lt;font style=&quot;font-size: 14px;&quot;&gt;.55&lt;/font&gt;" style="text;html=1;strokeColor=none;fillColor=none;align=center;verticalAlign=middle;whiteSpace=wrap;rounded=0;" vertex="1" parent="1">
          <mxGeometry x="284" y="290" width="30" height="20" as="geometry" />
        </mxCell>
        <mxCell id="OcFLlQT7dA1GOdhq0ZGQ-53" value="&lt;font style=&quot;font-size: 14px;&quot;&gt;.80&lt;/font&gt;" style="text;html=1;strokeColor=none;fillColor=none;align=center;verticalAlign=middle;whiteSpace=wrap;rounded=0;" vertex="1" parent="1">
          <mxGeometry x="327" y="290" width="30" height="20" as="geometry" />
        </mxCell>
        <mxCell id="OcFLlQT7dA1GOdhq0ZGQ-54" value="&lt;font style=&quot;font-size: 14px;&quot;&gt;.15&lt;/font&gt;" style="text;html=1;strokeColor=none;fillColor=none;align=center;verticalAlign=middle;whiteSpace=wrap;rounded=0;" vertex="1" parent="1">
          <mxGeometry x="369" y="290" width="30" height="20" as="geometry" />
        </mxCell>
        <mxCell id="OcFLlQT7dA1GOdhq0ZGQ-56" value="&lt;font style=&quot;font-size: 14px;&quot;&gt;.45&lt;/font&gt;" style="text;html=1;strokeColor=none;fillColor=none;align=center;verticalAlign=middle;whiteSpace=wrap;rounded=0;" vertex="1" parent="1">
          <mxGeometry x="500" y="290" width="30" height="20" as="geometry" />
        </mxCell>
        <mxCell id="OcFLlQT7dA1GOdhq0ZGQ-57" value="&lt;font style=&quot;font-size: 14px;&quot;&gt;.66&lt;/font&gt;" style="text;html=1;strokeColor=none;fillColor=none;align=center;verticalAlign=middle;whiteSpace=wrap;rounded=0;" vertex="1" parent="1">
          <mxGeometry x="542.5" y="290" width="30" height="20" as="geometry" />
        </mxCell>
        <mxCell id="OcFLlQT7dA1GOdhq0ZGQ-58" value="&lt;font style=&quot;font-size: 14px;&quot;&gt;.30&lt;/font&gt;" style="text;html=1;strokeColor=none;fillColor=none;align=center;verticalAlign=middle;whiteSpace=wrap;rounded=0;" vertex="1" parent="1">
          <mxGeometry x="585" y="290" width="30" height="20" as="geometry" />
        </mxCell>
        <mxCell id="OcFLlQT7dA1GOdhq0ZGQ-59" value="&lt;font style=&quot;font-size: 14px;&quot;&gt;.70&lt;/font&gt;" style="text;html=1;strokeColor=none;fillColor=none;align=center;verticalAlign=middle;whiteSpace=wrap;rounded=0;" vertex="1" parent="1">
          <mxGeometry x="626" y="290" width="30" height="20" as="geometry" />
        </mxCell>
        <mxCell id="OcFLlQT7dA1GOdhq0ZGQ-60" value="" style="endArrow=classic;html=1;rounded=0;entryX=0.5;entryY=1;entryDx=0;entryDy=0;" edge="1" parent="1" target="OcFLlQT7dA1GOdhq0ZGQ-7">
          <mxGeometry width="50" height="50" relative="1" as="geometry">
            <mxPoint x="85" y="370" as="sourcePoint" />
            <mxPoint x="102.5" y="370" as="targetPoint" />
          </mxGeometry>
        </mxCell>
        <mxCell id="OcFLlQT7dA1GOdhq0ZGQ-62" value="" style="endArrow=classic;html=1;rounded=0;entryX=0.5;entryY=1;entryDx=0;entryDy=0;" edge="1" parent="1">
          <mxGeometry width="50" height="50" relative="1" as="geometry">
            <mxPoint x="134.71" y="370" as="sourcePoint" />
            <mxPoint x="134.71" y="350" as="targetPoint" />
          </mxGeometry>
        </mxCell>
        <mxCell id="OcFLlQT7dA1GOdhq0ZGQ-64" value="" style="endArrow=classic;html=1;rounded=0;entryX=0.5;entryY=1;entryDx=0;entryDy=0;" edge="1" parent="1">
          <mxGeometry width="50" height="50" relative="1" as="geometry">
            <mxPoint x="184.71" y="370" as="sourcePoint" />
            <mxPoint x="184.71" y="350" as="targetPoint" />
          </mxGeometry>
        </mxCell>
        <mxCell id="OcFLlQT7dA1GOdhq0ZGQ-65" value="" style="endArrow=classic;html=1;rounded=0;entryX=0.5;entryY=1;entryDx=0;entryDy=0;" edge="1" parent="1">
          <mxGeometry width="50" height="50" relative="1" as="geometry">
            <mxPoint x="234.71" y="370" as="sourcePoint" />
            <mxPoint x="234.71" y="350" as="targetPoint" />
          </mxGeometry>
        </mxCell>
        <mxCell id="OcFLlQT7dA1GOdhq0ZGQ-66" value="" style="endArrow=classic;html=1;rounded=0;entryX=0.5;entryY=1;entryDx=0;entryDy=0;" edge="1" parent="1" target="OcFLlQT7dA1GOdhq0ZGQ-17">
          <mxGeometry width="50" height="50" relative="1" as="geometry">
            <mxPoint x="302.21000000000004" y="370" as="sourcePoint" />
            <mxPoint x="302.21000000000004" y="350" as="targetPoint" />
          </mxGeometry>
        </mxCell>
        <mxCell id="OcFLlQT7dA1GOdhq0ZGQ-67" value="" style="endArrow=classic;html=1;rounded=0;entryX=0.5;entryY=1;entryDx=0;entryDy=0;" edge="1" parent="1" target="OcFLlQT7dA1GOdhq0ZGQ-18">
          <mxGeometry width="50" height="50" relative="1" as="geometry">
            <mxPoint x="353" y="370" as="sourcePoint" />
            <mxPoint x="352.21000000000004" y="350" as="targetPoint" />
          </mxGeometry>
        </mxCell>
        <mxCell id="OcFLlQT7dA1GOdhq0ZGQ-68" value="" style="endArrow=classic;html=1;rounded=0;entryX=0.5;entryY=1;entryDx=0;entryDy=0;" edge="1" parent="1" target="OcFLlQT7dA1GOdhq0ZGQ-19">
          <mxGeometry width="50" height="50" relative="1" as="geometry">
            <mxPoint x="403" y="370" as="sourcePoint" />
            <mxPoint x="400" y="350" as="targetPoint" />
          </mxGeometry>
        </mxCell>
        <mxCell id="OcFLlQT7dA1GOdhq0ZGQ-69" value="" style="endArrow=classic;html=1;rounded=0;" edge="1" parent="1">
          <mxGeometry width="50" height="50" relative="1" as="geometry">
            <mxPoint x="519.71" y="370" as="sourcePoint" />
            <mxPoint x="520" y="350" as="targetPoint" />
          </mxGeometry>
        </mxCell>
        <mxCell id="OcFLlQT7dA1GOdhq0ZGQ-70" value="" style="endArrow=classic;html=1;rounded=0;entryX=0.5;entryY=1;entryDx=0;entryDy=0;" edge="1" parent="1" target="OcFLlQT7dA1GOdhq0ZGQ-30">
          <mxGeometry width="50" height="50" relative="1" as="geometry">
            <mxPoint x="570" y="370" as="sourcePoint" />
            <mxPoint x="572.5" y="350" as="targetPoint" />
          </mxGeometry>
        </mxCell>
        <mxCell id="OcFLlQT7dA1GOdhq0ZGQ-71" value="" style="endArrow=classic;html=1;rounded=0;entryX=0.5;entryY=1;entryDx=0;entryDy=0;" edge="1" parent="1" target="OcFLlQT7dA1GOdhq0ZGQ-31">
          <mxGeometry width="50" height="50" relative="1" as="geometry">
            <mxPoint x="619.71" y="370" as="sourcePoint" />
            <mxPoint x="619.71" y="350" as="targetPoint" />
          </mxGeometry>
        </mxCell>
        <mxCell id="OcFLlQT7dA1GOdhq0ZGQ-72" value="" style="endArrow=classic;html=1;rounded=0;" edge="1" parent="1">
          <mxGeometry width="50" height="50" relative="1" as="geometry">
            <mxPoint x="669.71" y="370" as="sourcePoint" />
            <mxPoint x="670" y="350" as="targetPoint" />
          </mxGeometry>
        </mxCell>
        <mxCell id="OcFLlQT7dA1GOdhq0ZGQ-73" value="&lt;font face=&quot;Tahoma&quot;&gt;&lt;span style=&quot;font-size: 14px;&quot;&gt;0.71&lt;/span&gt;&lt;/font&gt;" style="ellipse;whiteSpace=wrap;html=1;aspect=fixed;align=center;" vertex="1" parent="1">
          <mxGeometry x="67.5" y="370" width="35" height="35" as="geometry" />
        </mxCell>
        <mxCell id="OcFLlQT7dA1GOdhq0ZGQ-76" value="&lt;font style=&quot;font-size: 14px;&quot; face=&quot;Tahoma&quot;&gt;0.52&lt;/font&gt;" style="ellipse;whiteSpace=wrap;html=1;aspect=fixed;align=center;" vertex="1" parent="1">
          <mxGeometry x="117.5" y="370" width="35" height="35" as="geometry" />
        </mxCell>
        <mxCell id="OcFLlQT7dA1GOdhq0ZGQ-77" value="&lt;font style=&quot;font-size: 14px;&quot; face=&quot;Tahoma&quot;&gt;0.82&lt;/font&gt;" style="ellipse;whiteSpace=wrap;html=1;aspect=fixed;align=center;" vertex="1" parent="1">
          <mxGeometry x="167.5" y="370" width="35" height="35" as="geometry" />
        </mxCell>
        <mxCell id="OcFLlQT7dA1GOdhq0ZGQ-78" value="&lt;font style=&quot;font-size: 14px;&quot; face=&quot;Tahoma&quot;&gt;0.55&lt;/font&gt;" style="ellipse;whiteSpace=wrap;html=1;aspect=fixed;align=center;" vertex="1" parent="1">
          <mxGeometry x="217.5" y="370" width="35" height="35" as="geometry" />
        </mxCell>
        <mxCell id="OcFLlQT7dA1GOdhq0ZGQ-79" value="&lt;font style=&quot;font-size: 14px;&quot; face=&quot;Tahoma&quot;&gt;0.69&lt;/font&gt;" style="ellipse;whiteSpace=wrap;html=1;aspect=fixed;align=center;" vertex="1" parent="1">
          <mxGeometry x="285" y="370" width="35" height="35" as="geometry" />
        </mxCell>
        <mxCell id="OcFLlQT7dA1GOdhq0ZGQ-80" value="&lt;font style=&quot;font-size: 14px;&quot; face=&quot;Tahoma&quot;&gt;0.39&lt;/font&gt;" style="ellipse;whiteSpace=wrap;html=1;aspect=fixed;align=center;" vertex="1" parent="1">
          <mxGeometry x="335" y="370" width="35" height="35" as="geometry" />
        </mxCell>
        <mxCell id="OcFLlQT7dA1GOdhq0ZGQ-81" value="&lt;font style=&quot;font-size: 14px;&quot; face=&quot;Tahoma&quot;&gt;0.95&lt;/font&gt;" style="ellipse;whiteSpace=wrap;html=1;aspect=fixed;align=center;" vertex="1" parent="1">
          <mxGeometry x="385" y="370" width="35" height="35" as="geometry" />
        </mxCell>
        <mxCell id="OcFLlQT7dA1GOdhq0ZGQ-82" value="&lt;font style=&quot;font-size: 14px;&quot; face=&quot;Tahoma&quot;&gt;0.78&lt;/font&gt;" style="ellipse;whiteSpace=wrap;html=1;aspect=fixed;align=center;" vertex="1" parent="1">
          <mxGeometry x="502.5" y="370" width="35" height="35" as="geometry" />
        </mxCell>
        <mxCell id="OcFLlQT7dA1GOdhq0ZGQ-83" value="&lt;font style=&quot;font-size: 14px;&quot; face=&quot;Tahoma&quot;&gt;0.61&lt;/font&gt;" style="ellipse;whiteSpace=wrap;html=1;aspect=fixed;align=center;" vertex="1" parent="1">
          <mxGeometry x="552.5" y="370" width="35" height="35" as="geometry" />
        </mxCell>
        <mxCell id="OcFLlQT7dA1GOdhq0ZGQ-84" value="&lt;font face=&quot;Tahoma&quot;&gt;&lt;span style=&quot;font-size: 14px;&quot;&gt;0.86&lt;/span&gt;&lt;/font&gt;" style="ellipse;whiteSpace=wrap;html=1;aspect=fixed;align=center;" vertex="1" parent="1">
          <mxGeometry x="602.5" y="370" width="35" height="35" as="geometry" />
        </mxCell>
        <mxCell id="OcFLlQT7dA1GOdhq0ZGQ-85" value="&lt;font style=&quot;font-size: 14px;&quot; face=&quot;Tahoma&quot;&gt;0.56&lt;/font&gt;" style="ellipse;whiteSpace=wrap;html=1;aspect=fixed;align=center;" vertex="1" parent="1">
          <mxGeometry x="652.5" y="370" width="35" height="35" as="geometry" />
        </mxCell>
        <mxCell id="OcFLlQT7dA1GOdhq0ZGQ-87" value="" style="endArrow=classic;html=1;rounded=0;entryX=0.5;entryY=1;entryDx=0;entryDy=0;" edge="1" parent="1">
          <mxGeometry width="50" height="50" relative="1" as="geometry">
            <mxPoint x="452.21" y="370" as="sourcePoint" />
            <mxPoint x="452.21" y="350" as="targetPoint" />
          </mxGeometry>
        </mxCell>
        <mxCell id="OcFLlQT7dA1GOdhq0ZGQ-88" value="&lt;font style=&quot;font-size: 14px;&quot; face=&quot;Tahoma&quot;&gt;0.61&lt;/font&gt;" style="ellipse;whiteSpace=wrap;html=1;aspect=fixed;align=center;" vertex="1" parent="1">
          <mxGeometry x="435" y="370" width="35" height="35" as="geometry" />
        </mxCell>
        <mxCell id="OcFLlQT7dA1GOdhq0ZGQ-89" value="&lt;font style=&quot;font-size: 14px;&quot;&gt;.64&lt;/font&gt;" style="text;html=1;strokeColor=none;fillColor=none;align=center;verticalAlign=middle;whiteSpace=wrap;rounded=0;" vertex="1" parent="1">
          <mxGeometry x="410" y="290" width="30" height="20" as="geometry" />
        </mxCell>
        <mxCell id="OcFLlQT7dA1GOdhq0ZGQ-90" value="" style="endArrow=classic;startArrow=classic;html=1;rounded=0;exitX=0.5;exitY=0;exitDx=0;exitDy=0;entryX=0.5;entryY=0;entryDx=0;entryDy=0;edgeStyle=orthogonalEdgeStyle;curved=1;" edge="1" parent="1" source="OcFLlQT7dA1GOdhq0ZGQ-1" target="OcFLlQT7dA1GOdhq0ZGQ-4">
          <mxGeometry width="50" height="50" relative="1" as="geometry">
            <mxPoint x="270" y="280" as="sourcePoint" />
            <mxPoint x="320" y="230" as="targetPoint" />
            <Array as="points">
              <mxPoint x="160" y="130" />
              <mxPoint x="380" y="130" />
            </Array>
          </mxGeometry>
        </mxCell>
        <mxCell id="OcFLlQT7dA1GOdhq0ZGQ-91" value="" style="endArrow=classic;startArrow=classic;html=1;rounded=0;exitX=0.5;exitY=0;exitDx=0;exitDy=0;entryX=0.5;entryY=0;entryDx=0;entryDy=0;edgeStyle=orthogonalEdgeStyle;curved=1;" edge="1" parent="1" source="OcFLlQT7dA1GOdhq0ZGQ-1" target="OcFLlQT7dA1GOdhq0ZGQ-6">
          <mxGeometry width="50" height="50" relative="1" as="geometry">
            <mxPoint x="270" y="280" as="sourcePoint" />
            <mxPoint x="320" y="230" as="targetPoint" />
            <Array as="points">
              <mxPoint x="160" y="110" />
              <mxPoint x="590" y="110" />
            </Array>
          </mxGeometry>
        </mxCell>
        <mxCell id="OcFLlQT7dA1GOdhq0ZGQ-94" value="" style="endArrow=classic;startArrow=classic;html=1;rounded=0;exitX=0.5;exitY=0;exitDx=0;exitDy=0;entryX=0.5;entryY=0;entryDx=0;entryDy=0;edgeStyle=orthogonalEdgeStyle;curved=1;" edge="1" parent="1" source="OcFLlQT7dA1GOdhq0ZGQ-4" target="OcFLlQT7dA1GOdhq0ZGQ-6">
          <mxGeometry width="50" height="50" relative="1" as="geometry">
            <mxPoint x="270" y="280" as="sourcePoint" />
            <mxPoint x="320" y="230" as="targetPoint" />
            <Array as="points">
              <mxPoint x="380" y="130" />
              <mxPoint x="590" y="130" />
            </Array>
          </mxGeometry>
        </mxCell>
        <mxCell id="OcFLlQT7dA1GOdhq0ZGQ-95" value="&lt;font style=&quot;font-size: 14px;&quot;&gt;-.58&lt;/font&gt;" style="text;html=1;strokeColor=none;fillColor=none;align=center;verticalAlign=middle;whiteSpace=wrap;rounded=0;" vertex="1" parent="1">
          <mxGeometry x="254" y="130" width="30" height="20" as="geometry" />
        </mxCell>
        <mxCell id="OcFLlQT7dA1GOdhq0ZGQ-96" value="&lt;font style=&quot;font-size: 14px;&quot;&gt;.71&lt;/font&gt;" style="text;html=1;strokeColor=none;fillColor=none;align=center;verticalAlign=middle;whiteSpace=wrap;rounded=0;" vertex="1" parent="1">
          <mxGeometry x="470" y="130" width="30" height="20" as="geometry" />
        </mxCell>
        <mxCell id="OcFLlQT7dA1GOdhq0ZGQ-97" value="&lt;font style=&quot;font-size: 14px;&quot;&gt;-.05&lt;/font&gt;" style="text;html=1;strokeColor=none;fillColor=none;align=center;verticalAlign=middle;whiteSpace=wrap;rounded=0;" vertex="1" parent="1">
          <mxGeometry x="365" y="90" width="30" height="20" as="geometry" />
        </mxCell>
      </root>
    </mxGraphModel>
  </diagram>
</mxfile>
